<?xml version="1.0" encoding="UTF-8" standalone="no"?>
<!-- Created with Inkscape (http://www.inkscape.org/) -->

<svg
   xmlns:dc="http://purl.org/dc/elements/1.1/"
   xmlns:cc="http://creativecommons.org/ns#"
   xmlns:rdf="http://www.w3.org/1999/02/22-rdf-syntax-ns#"
   xmlns:svg="http://www.w3.org/2000/svg"
   xmlns="http://www.w3.org/2000/svg"
   xmlns:sodipodi="http://sodipodi.sourceforge.net/DTD/sodipodi-0.dtd"
   xmlns:inkscape="http://www.inkscape.org/namespaces/inkscape"
   width="210mm"
   height="297mm"
   viewBox="0 0 210 297"
   version="1.1"
   id="level-2"
   inkscape:version="0.92.4 (5da689c313, 2019-01-14)"
   sodipodi:docname="plan.svg">
  <defs
     id="defs2" />
  <sodipodi:namedview
     id="base"
     pagecolor="#ffffff"
     bordercolor="#666666"
     borderopacity="1.0"
     inkscape:pageopacity="0.0"
     inkscape:pageshadow="2"
     inkscape:zoom="0.49497475"
     inkscape:cx="494.41653"
     inkscape:cy="577.21377"
     inkscape:document-units="mm"
     inkscape:current-layer="layer1"
     showgrid="false"
     inkscape:window-width="1280"
     inkscape:window-height="962"
     inkscape:window-x="-8"
     inkscape:window-y="-8"
     inkscape:window-maximized="1"
     showguides="false" />
  <metadata
     id="metadata5">
    <rdf:RDF>
      <cc:Work
         rdf:about="">
        <dc:format>image/svg+xml</dc:format>
        <dc:type
           rdf:resource="http://purl.org/dc/dcmitype/StillImage" />
        <dc:title />
      </cc:Work>
    </rdf:RDF>
  </metadata>
  <g
     inkscape:label="Layer 1"
     inkscape:groupmode="layer"
     id="layer1"
     style="display:inline">
    <path
       style="fill:none;stroke:#000000;stroke-width:0.26458332px;stroke-linecap:butt;stroke-linejoin:miter;stroke-opacity:1"
       d="m 20.847023,26.523238 c -1.069078,119.736742 157.154477,0 157.154477,0 l -1.06908,116.529512 -157.154475,3.20723"
       id="path4538"
       inkscape:connector-curvature="0" />
    <path
       style="fill:none;stroke:#000000;stroke-width:0.08673301px;stroke-linecap:butt;stroke-linejoin:miter;stroke-opacity:1"
       d="m 19.825253,26.474328 c 0,6.063054 0,12.126108 0,18.189163 0,1.426601 0,2.853202 0,4.279803 0,0.534976 -0.0081,1.075329 0,1.604927 0.01116,0.727865 0.04624,1.412038 0.05739,2.139901 0.0081,0.529599 -0.0081,1.075327 0,1.604925 0.01115,0.727865 0.04868,1.409146 0.05739,2.139902 0.01056,0.886175 0,1.783254 0,2.674879 0,0.713299 0,1.4266 0,2.139901 0,0.713301 -0.0085,1.430965 0,2.139901 0.01077,0.903724 0.04662,1.771156 0.05739,2.674878 0.0085,0.708937 0,1.426602 0,2.139902 0,2.139902 0,4.279804 0,6.419705 0,4.814777 0,9.629556 0,14.444337 0,4.814777 0,9.629556 0,14.444338 0,1.78325 0,3.56649 0,5.34975 0,0.55545 -0.01215,1.68698 0,2.1399 0.01467,0.54708 0.04272,1.05785 0.05739,1.60492 0.02041,0.76108 -0.02545,1.96313 0,2.67489 0.0086,0.23924 0.04239,0.32514 0.05739,0.53497 0.02373,0.33178 0.04387,0.69167 0.05739,1.06995 0.01722,0.48148 -0.01722,1.12345 0,1.60493 0.01353,0.37828 0.03366,0.73818 0.05739,1.06995 0.01501,0.20983 0.04884,0.29573 0.05739,0.53497 0.0242,0.6767 -0.0242,1.46321 0,2.13991 0.0086,0.23924 0.04239,0.32513 0.05739,0.53497 0.12645,0.26941 0.03034,1.10055 0.05739,1.60492 0.0121,0.22558 0.04884,0.29573 0.05739,0.53498 0.01138,0.31813 0,2.57794 0,3.20986 0,0.39271 0.01,3.02334 0,3.20985 -0.0121,0.22556 -0.04529,0.30941 -0.05739,0.53497 -0.01804,0.33625 0.01804,1.80366 0,2.13991 -0.0121,0.22556 -0.04529,0.3094 -0.05739,0.53497 -0.0086,0.1595 0.0086,0.37547 0,0.53497 -0.0121,0.22557 -0.04529,0.30941 -0.05739,0.53498 -0.02296,0.42798 0.02296,1.17695 0,1.60493 -0.0121,0.22556 -0.04529,0.30941 -0.05739,0.53497 -0.01982,0.36952 0.02015,2.48709 0,2.67487 -0.07653,0.71331 -0.05739,-0.89161 -0.05739,0.53498 0,0.12976 0.0018,1.58773 0,1.60493 -0.01353,0.12609 -0.04387,-0.12609 -0.05739,0 -0.02706,0.2522 0.02706,0.81776 0,1.06995 -0.01353,0.12609 -0.04387,-0.12609 -0.05739,0 -0.01353,0.12609 0.01353,0.40889 0,0.53498 -0.02706,0.25218 -0.08773,-0.2522 -0.114789,0 -0.01353,0.12609 0.01353,0.40887 0,0.53497 -0.02706,0.25219 -0.08773,-0.25219 -0.114789,0 -0.02706,0.25219 0.03826,1.06995 0,1.06995 -0.01913,0 0,-0.35664 0,-0.53497 -0.03826,0.35664 -0.07653,0.71329 -0.114788,1.06994"
       id="path4542"
       inkscape:connector-curvature="0" />
    <ellipse
       id="201"
       cx="36.348656"
       cy="41.757603"
       rx="4.2763124"
       ry="4.0090427"
       style="stroke-width:0.26458332"
       inkscape:label="#201" />
    <ellipse
       id="203"
       cx="136.04019"
       cy="36.412212"
       rx="5.0781207"
       ry="4.543582"
       style="stroke-width:0.26458332"
       inkscape:label="#203" />
    <ellipse
       id="202"
       cx="82.319016"
       cy="60.733738"
       rx="4.8108511"
       ry="4.2763124"
       style="stroke-width:0.26458332"
       inkscape:label="#202" />
    <ellipse
       id="206"
       cx="161.43079"
       cy="71.959061"
       rx="4.8108511"
       ry="5.3453903"
       style="stroke-width:0.26458332"
       inkscape:label="#206" />
    <ellipse
       id="209"
       cx="161.43079"
       cy="132.0947"
       rx="4.8108511"
       ry="4.0090427"
       style="stroke-width:0.26458332"
       inkscape:label="#209" />
    <ellipse
       id="204"
       cx="36.615925"
       cy="88.52977"
       rx="5.0781207"
       ry="4.2763124"
       style="stroke-width:0.26458332"
       inkscape:label="#204" />
    <ellipse
       id="207"
       cx="40.357697"
       cy="127.81839"
       rx="5.0781207"
       ry="4.543582"
       style="stroke-width:0.26458332"
       inkscape:label="#207" />
    <ellipse
       id="205"
       cx="101.29515"
       cy="104.0314"
       rx="4.543582"
       ry="5.3453903"
       style="stroke-width:0.26458332"
       inkscape:label="#205" />
    <ellipse
       id="208"
       cx="121.34036"
       cy="128.62019"
       rx="5.8799295"
       ry="4.2763124"
       style="stroke-width:0.26458332"
       inkscape:label="#208" />
    <path
       style="fill:none;stroke:#000000;stroke-width:0.26458332px;stroke-linecap:butt;stroke-linejoin:miter;stroke-opacity:1"
       d="m 60.937451,181.53956 c 0.712719,-0.8909 1.425438,-1.78179 2.138157,-2.67269 0,-0.35636 -0.197673,-0.77257 0,-1.06908 0.221003,-0.33151 0.787349,-0.25281 1.069078,-0.53454 0.563454,-0.56345 0.59097,-1.50068 1.069078,-2.13816 0.302381,-0.40317 0.789527,-0.64975 1.069078,-1.06907 0.09883,-0.14826 -0.07968,-0.37517 0,-0.53454 0.112691,-0.22538 0.394763,-0.32488 0.534537,-0.53454 1.292546,-2.58509 -0.155318,0.0289 1.069078,-1.60362 0.385464,-0.51395 0.781773,-1.029 1.069078,-1.60362 0.07968,-0.15936 -0.125991,-0.40854 0,-0.53454 0.281729,-0.28172 0.787353,-0.25281 1.069079,-0.53453 0.281728,-0.28173 0.313536,-0.73757 0.53454,-1.06908 0.139777,-0.20967 0.394764,-0.32488 0.53454,-0.53454 0.221004,-0.33151 0.252812,-0.78735 0.534538,-1.06908 0.125992,-0.12599 0.408546,0.12599 0.53454,0 0.281726,-0.28173 0.313534,-0.73757 0.534538,-1.06908 0.139777,-0.20966 0.309158,-0.42185 0.53454,-0.53454 0.109522,-0.0548 1.969987,-0.042 2.138156,0 0.54663,0.13666 1.051105,0.42404 1.603616,0.53454 0.349441,0.0699 0.712719,0 1.069078,0 1.425438,0 2.850875,0 4.276312,0 0.534541,0 1.074452,-0.0756 1.603619,0 0.727268,0.1039 1.410885,0.43065 2.138156,0.53454 1.222311,0.17462 2.51946,-0.17461 3.741772,0 0.557792,0.0797 1.047829,0.44191 1.603618,0.53454 0.527264,0.0879 1.074449,-0.0756 1.603616,0 5.528342,0.78976 -1.684811,0.34734 4.810852,1.06908 1.239629,0.13773 2.507055,-0.17639 3.741775,0 0.72727,0.10389 1.41089,0.43064 2.13815,0.53454 0.52917,0.0756 1.09651,-0.16904 1.60362,0 0.60947,0.20315 1.08967,0.68361 1.60362,1.06908 0.20159,0.15119 0.29548,0.45485 0.53454,0.53453 0.002,8e-4 1.60311,-5.3e-4 1.60362,0 0.28172,0.28173 0.25281,0.78736 0.53453,1.06908 0.28173,0.28173 0.78736,0.25281 1.06908,0.53454 0.28173,0.28173 0.31354,0.73757 0.53454,1.06908 0.13978,0.20966 0.42185,0.30916 0.53454,0.53454 0.0797,0.15937 -0.0797,0.37517 0,0.53454 0.11269,0.22538 0.42185,0.30916 0.53454,0.53454 0.0797,0.15937 -0.12599,0.40854 0,0.53454 0.12599,0.12599 0.40855,-0.126 0.53454,0 0.28173,0.28172 0.25281,0.78735 0.53454,1.06907 0.12599,0.126 0.4357,-0.14825 0.53454,0 1.29139,1.9371 0.12713,1.04307 0.53454,2.6727 0.0966,0.38653 0.40854,0.6911 0.53453,1.06908 0.0564,0.16903 -0.0797,0.37517 0,0.53454 0.1127,0.22538 0.45486,0.29548 0.53454,0.53453 0.11269,0.33808 -0.11269,0.73101 0,1.06908 0.0797,0.23906 0.45486,0.29549 0.53454,0.53454 0.22538,0.67615 -0.31874,1.50068 0,2.13816 0.0797,0.15937 0.45486,-0.15937 0.53454,0 0.23905,0.4781 -0.23905,1.12551 0,1.60361 0.11269,0.22539 0.42185,0.30916 0.53454,0.53455 0.0813,0.16267 0,1.36288 0,1.60361 0,1.42544 0,2.85088 0,4.27632 0,1.24725 0,2.49451 0,3.74177 0,0.24073 0.0813,1.44094 0,1.60362 -0.11269,0.22538 -0.42185,0.30915 -0.53454,0.53453 -0.21382,0.42763 0.21382,1.17599 0,1.60362 -0.0797,0.15937 -0.45485,-0.15937 -0.53454,0 -0.15937,0.31874 0.11269,0.73101 0,1.06908 -0.0797,0.23905 -0.42185,0.30916 -0.53454,0.53454 -0.65827,1.31654 1.55163,-0.48255 -0.53454,1.60362 -0.12599,0.12599 -0.45485,-0.15937 -0.53453,0 -0.15937,0.31873 0.25198,0.81709 0,1.06907 -0.25199,0.25199 -0.8171,-0.25198 -1.06908,0 -0.25199,0.25199 0.19767,0.77257 0,1.06908 -0.22101,0.33151 -0.78735,0.25281 -1.06908,0.53454 -0.12599,0.12599 0.0797,0.37517 0,0.53454 -0.11269,0.22538 -0.39476,0.32487 -0.53454,0.53454 -0.221,0.33151 -0.25281,0.78735 -0.53454,1.06908 -0.12599,0.12599 -0.38628,-0.0988 -0.53454,0 -0.72344,0.30411 -0.97463,1.18429 -1.60361,1.60361 -0.66302,0.44201 -1.47515,0.62707 -2.13816,1.06908 -0.20966,0.13978 -0.32488,0.39477 -0.53454,0.53454 -0.66301,0.44201 -1.47514,0.62707 -2.13816,1.06908 -0.20966,0.13978 -0.35636,0.35636 -0.53454,0.53454 -0.17817,0.17818 -0.39476,0.32487 -0.53453,0.53454 -0.22101,0.3315 -0.25282,0.78735 -0.53454,1.06907 -0.28173,0.28173 -0.73758,0.31354 -1.06908,0.53454 -0.20966,0.13978 -0.32488,0.39477 -0.53454,0.53454 -0.33151,0.22101 -0.83002,0.2158 -1.069078,0.53454 -0.338072,0.45077 -0.136118,1.2052 -0.534541,1.60362 -0.251984,0.25198 -0.75034,-0.15937 -1.069078,0 -0.450763,0.22538 -0.665903,0.7667 -1.069078,1.06908 -0.318735,0.23905 -0.75034,0.29548 -1.069078,0.53454 -2.312035,2.31203 0.141605,0.0838 -2.138156,1.60361 -0.419325,0.27956 -0.649751,0.78953 -1.069078,1.06908 -0.331507,0.22101 -0.78735,0.25282 -1.069078,0.53454 -0.281726,0.28173 -0.203031,0.84808 -0.534538,1.06908 -0.29651,0.19767 -0.75034,-0.15937 -1.069078,0 -0.450763,0.22538 -0.675545,0.75425 -1.069078,1.06908 -0.501658,0.40132 -1.029004,0.78177 -1.603618,1.06908 -0.503968,0.25198 -1.085721,0.31258 -1.603616,0.53453 -0.732417,0.3139 -1.405742,0.75519 -2.138156,1.06908 -1.93784,0.8305 -2.061467,0.33799 -4.276312,1.60362 -0.437568,0.25004 -0.675545,0.75425 -1.069078,1.06908 -0.501658,0.40133 -1.101961,0.66775 -1.603619,1.06908 -0.393533,0.31482 -0.675545,0.75425 -1.069078,1.06907 -1.075068,0.86006 -1.562388,1.04847 -2.672694,1.60362 -0.356359,0.17818 -0.737571,0.31354 -1.069078,0.53454 -0.209663,0.13978 -0.332954,0.38335 -0.53454,0.53454 -0.513948,0.38546 -1.089668,0.68361 -1.603618,1.06908 -0.201587,0.15119 -0.324874,0.39476 -0.534538,0.53454 -0.331507,0.221 -0.712719,0.35636 -1.069078,0.53454 -0.35636,0.17817 -0.691102,0.40854 -1.069078,0.53453 -0.169037,0.0563 -0.386284,-0.0988 -0.534541,0 -0.419325,0.27955 -0.712718,0.71272 -1.069078,1.06908 -0.178178,0.17818 -0.309157,0.42185 -0.534537,0.53454 -1.316543,0.65827 0.482547,-1.55162 -1.603619,0.53454 -0.125992,0.12599 0.125992,0.40855 0,0.53454 -0.125992,0.12599 -0.408546,-0.12599 -0.534537,0 -0.125992,0.12599 0.125991,0.40855 0,0.53454 -0.251984,0.25198 -0.817095,-0.25199 -1.069079,0 -0.125991,0.12599 0.125992,0.40855 0,0.53454 -0.125991,0.12599 -0.375171,-0.0797 -0.53454,0 -0.141925,0.071 -1.532654,1.46169 -1.603616,1.60361 -0.07968,0.15937 0.07969,0.37518 0,0.53454 -0.225382,0.45077 -0.789527,0.64975 -1.069078,1.06908 -0.221003,0.33151 -0.313534,0.73757 -0.53454,1.06908 -0.139774,0.20966 -0.421846,0.30916 -0.534538,0.53454 -0.159369,0.31874 0.159369,0.75034 0,1.06908 -0.112691,0.22538 -0.421849,0.30915 -0.53454,0.53454 -0.251984,0.50396 -0.39788,1.05698 -0.534538,1.60361 -0.04321,0.17286 0.07969,0.37517 0,0.53454 -0.112691,0.22538 -0.454856,0.29549 -0.53454,0.53454 0,2.43338 0.251984,0.0306 -0.534538,1.60362 -0.213815,0.42763 0.213815,1.17598 0,1.60361 -0.07968,0.15937 -0.356359,0 -0.53454,0 -0.178179,0.35636 -0.437907,0.68256 -0.534538,1.06908 -0.08643,0.34572 0.159369,0.75035 0,1.06908 -0.07968,0.15937 -0.375171,-0.0797 -0.53454,0 -0.22538,0.11269 -0.421847,0.30916 -0.534538,0.53454 -0.02215,0.0443 -0.02291,1.53484 0,1.60362 0.125992,0.37798 0.890897,0.8909 0.534538,1.06907 -0.35636,0.17819 -0.932961,-1.06907 -0.534538,-1.06907 0.503968,0 0.665903,0.7667 1.069078,1.06907 0.318736,0.23906 0.78735,0.25282 1.069078,0.53455 0.125992,0.12599 -0.07968,0.37517 0,0.53453 0.112692,0.22539 0.421849,0.30916 0.534538,0.53454 0.07968,0.15937 -0.125992,0.40855 0,0.53454 0.251984,0.25199 0.817094,-0.25198 1.069078,0 0.251984,0.25199 -0.251984,0.8171 0,1.06908 0.352779,0.35278 0.716301,-0.35278 1.069078,0 0.125992,0.12599 -0.07968,0.37517 0,0.53454 0.59095,1.1819 0.331758,0.16588 1.069078,0.53454 0.225383,0.11269 0.309158,0.42185 0.53454,0.53454 0.193308,0.0967 2.300902,0 2.672694,0 2.138156,0 4.276312,0 6.414468,0 6.59265,0 13.185299,0 19.777946,0 6.770827,0 13.541659,0 20.312489,0 5.52356,0 11.04714,0 16.5707,0 1.7818,0 3.5636,0 5.34539,0 0.43033,0 1.80266,0.11183 2.13816,0 1.08022,-0.36007 1.46267,-1.06908 2.6727,-1.06908"
       id="path4531"
       inkscape:connector-curvature="0" />
  </g>
</svg>
