<?xml version="1.0" encoding="UTF-8" standalone="no"?>
<!-- Created with Inkscape (http://www.inkscape.org/) -->

<svg
   xmlns:dc="http://purl.org/dc/elements/1.1/"
   xmlns:cc="http://creativecommons.org/ns#"
   xmlns:rdf="http://www.w3.org/1999/02/22-rdf-syntax-ns#"
   xmlns:svg="http://www.w3.org/2000/svg"
   xmlns="http://www.w3.org/2000/svg"
   xmlns:sodipodi="http://sodipodi.sourceforge.net/DTD/sodipodi-0.dtd"
   xmlns:inkscape="http://www.inkscape.org/namespaces/inkscape"
   width="300mm"
   height="300mm"
   viewBox="0 0 300 300"
   version="1.1"
   id="svg8"
   inkscape:version="0.92.4 (5da689c313, 2019-01-14)"
   sodipodi:docname="logi.svg">
  <defs
     id="defs2" />
  <sodipodi:namedview
     id="base"
     pagecolor="#ffffff"
     bordercolor="#666666"
     borderopacity="1.0"
     inkscape:pageopacity="0.0"
     inkscape:pageshadow="2"
     inkscape:zoom="0.35"
     inkscape:cx="609.52725"
     inkscape:cy="494.68597"
     inkscape:document-units="mm"
     inkscape:current-layer="layer1"
     showgrid="false"
     inkscape:window-width="1680"
     inkscape:window-height="988"
     inkscape:window-x="-8"
     inkscape:window-y="-8"
     inkscape:window-maximized="1" />
  <metadata
     id="metadata5">
    <rdf:RDF>
      <cc:Work
         rdf:about="">
        <dc:format>image/svg+xml</dc:format>
        <dc:type
           rdf:resource="http://purl.org/dc/dcmitype/StillImage" />
        <dc:title></dc:title>
      </cc:Work>
    </rdf:RDF>
  </metadata>
  <g
     inkscape:label="Layer 1"
     inkscape:groupmode="layer"
     id="layer1"
     transform="translate(0,3)">
    <path
       style="fill:none;stroke:#000000;stroke-width:0.26458332px;stroke-linecap:butt;stroke-linejoin:miter;stroke-opacity:1"
       d="m 108.85714,86.089287 -23.434523,66.523813 18.142853,43.08928 84.66667,17.38691 39.30952,-41.57739 5.29167,-68.79166 -60.47619,-15.11905 z"
       id="path4518"
       inkscape:connector-curvature="0" />
    <path
       style="fill:#0fb21b;fill-opacity:1;stroke-width:28.5714283;stroke-miterlimit:4;stroke-dasharray:none"
       d="M 547.24153,781.42295 C 463.17011,764.08984 393.96986,749.54238 393.46322,749.09527 392.95657,748.64815 377.30961,712.22381 358.69217,668.1523 L 324.8423,588.02224 367.84643,465.74013 c 23.65228,-67.25517 44.02992,-123.41279 45.28366,-124.79473 1.3104,-1.44438 53.07932,-1.14745 121.76692,0.69843 l 119.48738,3.21104 111.42857,28.09128 111.42857,28.09127 -0.71897,12.63887 c -0.39543,6.95137 -4.68588,64.64011 -9.53434,128.19718 l -8.81537,115.55831 -10.46566,11.79875 c -5.75611,6.48928 -38.6696,41.5952 -73.14111,78.01311 -44.07926,46.56817 -64.4248,66.13717 -68.57143,65.95423 -3.24277,-0.14309 -74.68169,-14.4418 -158.75312,-31.77492 z"
       id="path-user"
       inkscape:connector-curvature="0"
       transform="matrix(0.26458333,0,0,0.26458333,0,-3)"
       inkscape:label="#path4548" />
    <flowRoot
       xml:space="preserve"
       id="flowRoot4550"
       style="font-style:normal;font-weight:normal;font-size:40px;line-height:1.25;font-family:sans-serif;letter-spacing:0px;word-spacing:0px;fill:#000000;fill-opacity:1;stroke:none"
       transform="matrix(0.90219517,0,0,1.1048841,-280.94398,-414.61366)"><flowRegion
         id="flowRegion4552"><rect
           id="rect4554"
           width="351.42856"
           height="145.71428"
           x="437.14285"
           y="482.42972" /></flowRegion><flowPara
         id="flowPara4556">User</flowPara></flowRoot>    <path
       style="fill:#d16000;fill-opacity:0.74358975;stroke:#000000;stroke-width:0.26458332px;stroke-linecap:butt;stroke-linejoin:miter;stroke-opacity:1"
       d="m 188.23214,213.08929 23.43452,84.66666 88.44643,0.75596 0.75597,-58.96429 -73.81083,-68.60213"
       id="path-files"
       inkscape:connector-curvature="0"
       inkscape:label="#path4558" />
    <flowRoot
       xml:space="preserve"
       id="flowRoot4560"
       style="font-style:normal;font-weight:normal;font-size:40px;line-height:1.25;font-family:sans-serif;letter-spacing:0px;word-spacing:0px;fill:#000000;fill-opacity:1;stroke:none"
       transform="matrix(0.74086668,0,0,0.97364088,-368.52271,-593.50088)"><flowRegion
         id="flowRegion4562"><rect
           id="rect4564"
           width="125.71423"
           height="62.857124"
           x="771.42859"
           y="822.42969" /></flowRegion><flowPara
         id="flowPara4566">Files</flowPara></flowRoot>  </g>
</svg>
